<svg width="32" height="31" viewBox="0 0 32 31" fill="none" xmlns="http://www.w3.org/2000/svg">
<path d="M24.5625 0H7.0625C3.43813 0 0.5 2.93813 0.5 6.5625V24.0625C0.5 27.6869 3.43813 30.625 7.0625 30.625H24.5625C28.1869 30.625 31.125 27.6869 31.125 24.0625V6.5625C31.125 2.93813 28.1869 0 24.5625 0Z" fill="url(#paint0_radial_158_1212)"/>
<path d="M23.4688 9.29688C23.4688 10.2029 22.7342 10.9375 21.8281 10.9375C20.9221 10.9375 20.1875 10.2029 20.1875 9.29688C20.1875 8.39078 20.9221 7.65625 21.8281 7.65625C22.7342 7.65625 23.4688 8.39078 23.4688 9.29688Z" fill="white"/>
<path fill-rule="evenodd" clip-rule="evenodd" d="M15.8125 20.7812C18.8328 20.7812 21.2812 18.3328 21.2812 15.3125C21.2812 12.2922 18.8328 9.84375 15.8125 9.84375C12.7922 9.84375 10.3438 12.2922 10.3438 15.3125C10.3438 18.3328 12.7922 20.7812 15.8125 20.7812ZM15.8125 18.5938C17.6247 18.5938 19.0938 17.1247 19.0938 15.3125C19.0938 13.5003 17.6247 12.0312 15.8125 12.0312C14.0003 12.0312 12.5312 13.5003 12.5312 15.3125C12.5312 17.1247 14.0003 18.5938 15.8125 18.5938Z" fill="white"/>
<path fill-rule="evenodd" clip-rule="evenodd" d="M4.875 14.875C4.875 11.1997 4.875 9.36195 5.59027 7.95819C6.21944 6.72337 7.22337 5.71944 8.45819 5.09027C9.86195 4.375 11.6997 4.375 15.375 4.375H16.25C19.9253 4.375 21.763 4.375 23.1668 5.09027C24.4016 5.71944 25.4056 6.72337 26.0347 7.95819C26.75 9.36195 26.75 11.1997 26.75 14.875V15.75C26.75 19.4253 26.75 21.263 26.0347 22.6668C25.4056 23.9016 24.4016 24.9056 23.1668 25.5347C21.763 26.25 19.9253 26.25 16.25 26.25H15.375C11.6997 26.25 9.86195 26.25 8.45819 25.5347C7.22337 24.9056 6.21944 23.9016 5.59027 22.6668C4.875 21.263 4.875 19.4253 4.875 15.75V14.875ZM15.375 6.5625H16.25C18.1238 6.5625 19.3975 6.56421 20.3821 6.64464C21.3412 6.723 21.8316 6.86502 22.1737 7.03934C22.9969 7.4588 23.6662 8.12808 24.0856 8.95125C24.26 9.29338 24.402 9.78381 24.4804 10.7429C24.5608 11.7275 24.5625 13.0012 24.5625 14.875V15.75C24.5625 17.6238 24.5608 18.8975 24.4804 19.8821C24.402 20.8412 24.26 21.3316 24.0856 21.6737C23.6662 22.4969 22.9969 23.1662 22.1737 23.5856C21.8316 23.76 21.3412 23.902 20.3821 23.9804C19.3975 24.0608 18.1238 24.0625 16.25 24.0625H15.375C13.5012 24.0625 12.2275 24.0608 11.2429 23.9804C10.2838 23.902 9.79338 23.76 9.45125 23.5856C8.62808 23.1662 7.9588 22.4969 7.53934 21.6737C7.36502 21.3316 7.223 20.8412 7.14464 19.8821C7.06421 18.8975 7.0625 17.6238 7.0625 15.75V14.875C7.0625 13.0012 7.06421 11.7275 7.14464 10.7429C7.223 9.78381 7.36502 9.29338 7.53934 8.95125C7.9588 8.12808 8.62808 7.4588 9.45125 7.03934C9.79338 6.86502 10.2838 6.723 11.2429 6.64464C12.2275 6.56421 13.5012 6.5625 15.375 6.5625Z" fill="white"/>
<defs>
<radialGradient id="paint0_radial_158_1212" cx="0" cy="0" r="1" gradientUnits="userSpaceOnUse" gradientTransform="translate(-1.14062 1.09375) rotate(-8.1301) scale(42.5369 9.09821)">
<stop offset="0.156701" stop-color="#406ADC"/>
<stop offset="0.467799" stop-color="#6A45BE"/>
<stop offset="1" stop-color="#6A45BE" stop-opacity="0"/>
</radialGradient>
</defs>
</svg>
