<svg width="21" height="17" viewBox="0 0 21 17" fill="none" xmlns="http://www.w3.org/2000/svg">
<path fill-rule="evenodd" clip-rule="evenodd" d="M20.0674 2.71267C19.365 3.03252 18.6088 3.24883 17.8155 3.34547C18.6256 2.84843 19.2472 2.0603 19.54 1.12145C18.7815 1.58167 17.9434 1.91648 17.0481 2.09597C16.3345 1.31474 15.3146 0.826904 14.1859 0.826904C12.0216 0.826904 10.2657 2.62752 10.2657 4.84809C10.2657 5.16335 10.2993 5.4694 10.3666 5.76394C7.10726 5.59596 4.21814 3.99668 2.2827 1.56096C1.94499 2.15694 1.752 2.84843 1.752 3.58479C1.752 4.97926 2.44427 6.21035 3.4967 6.93175C2.85492 6.91219 2.24904 6.72926 1.71946 6.43011V6.47958C1.71946 8.42862 3.07146 10.0544 4.86664 10.4225C4.5379 10.5169 4.19121 10.5641 3.83329 10.5641C3.58085 10.5641 3.33401 10.5399 3.09502 10.4927C3.59431 12.0897 5.04167 13.2529 6.75831 13.284C5.41641 14.3632 3.72446 15.0063 1.88776 15.0063C1.57136 15.0063 1.25833 14.9879 0.952026 14.9511C2.68774 16.0902 4.74996 16.7563 6.96364 16.7563C14.178 16.7563 18.1218 10.6296 18.1218 5.31522C18.1218 5.14033 18.1185 4.96545 18.1117 4.79402C18.878 4.22679 19.5434 3.51921 20.0674 2.71267Z" fill="white"/>
</svg>
